# xmcd CD database file generated by Grip 3.3.1
# 
# Track frame offsets:
#       150
#       12137
#       24708
#       33292
#       46164
#       56144
#       64371
#       77871
#       88861
#       100180
#       112943
#       122897
#       134831
#       145708
#       155813
#       168060
# 
# Disc length: 2420 seconds
# 
# Revision: 3
# Processed by: cddbd v1.5.2PL0 Copyright (c) Steve Scherf et al.
# Submitted via: Grip 3.3.1
# 
DISCID=da097210
DTITLE=Johnny Cash - The Best Of Johnny Cash - CD1
DYEAR=2003
DGENRE=Country
TTITLE0=Jackson
TTITLE1=Ring Of Fire
TTITLE2=I Got Stripes
TTITLE3=San Quentin
TTITLE4=Hey Porter
TTITLE5=Wreck Of Old '97
TTITLE6=Don't Take Your Guns To Town
TTITLE7=Cry! Cry! Cry!
TTITLE8=Mean Eyed Cat
TTITLE9=Folsom Prison Blues
TTITLE10=Rock Island Line
TTITLE11=Doin' My Time
TTITLE12=Wide Open Road
TTITLE13=Get Rhythm
TTITLE14=Understand Your Man
TTITLE15=It Ain't Me Babe
EXTD=
EXTT0=
EXTT1=
EXTT2=
EXTT3=
EXTT4=
EXTT5=
EXTT6=
EXTT7=
EXTT8=
EXTT9=
EXTT10=
EXTT11=
EXTT12=
EXTT13=
EXTT14=
EXTT15=
PLAYORDER=
